<?xml version="1.0" standalone="no"?>
<!DOCTYPE svg PUBLIC "-//W3C//DTD SVG 20010904//EN"
 "http://www.w3.org/TR/2001/REC-SVG-20010904/DTD/svg10.dtd">
<svg version="1.0" xmlns="http://www.w3.org/2000/svg"
 width="176.000000pt" height="176.000000pt" viewBox="0 0 176.000000 176.000000"
 preserveAspectRatio="xMidYMid meet">

<g transform="translate(0.000000,176.000000) scale(0.100000,-0.100000)"
fill="#000000" stroke="none">
<path d="M0 880 l0 -880 880 0 880 0 0 880 0 880 -880 0 -880 0 0 -880z m1250
587 l355 -203 3 -406 2 -407 -69 -41 c-49 -29 -76 -40 -90 -35 -33 10 -25 22
44 60 l65 37 -2 385 -3 384 -330 184 c-181 102 -335 183 -340 182 -21 -4 -375
-202 -375 -209 0 -9 133 -88 148 -88 7 0 60 28 118 61 95 56 107 61 131 50 14
-6 109 -60 212 -120 102 -60 205 -119 228 -132 24 -13 43 -27 43 -30 0 -9
-261 -162 -275 -162 -5 0 -98 52 -205 115 -107 63 -210 122 -228 132 l-32 17
-98 -59 -97 -58 -3 -107 c-1 -59 0 -107 4 -107 4 0 53 24 109 54 90 48 104 53
121 42 64 -45 404 -246 416 -246 7 0 22 6 33 13 25 17 235 128 235 125 4 -48
0 -320 -4 -327 -4 -5 -19 -16 -34 -24 -31 -16 -118 -65 -144 -81 -10 -6 -18
-14 -18 -18 0 -4 43 -33 95 -64 53 -31 97 -60 100 -63 2 -4 -17 -19 -43 -33
-95 -52 -210 -117 -321 -182 l-113 -67 -327 182 c-179 100 -343 193 -364 206
l-37 23 0 404 c0 455 -9 406 88 464 58 36 70 38 96 19 17 -12 12 -17 -53 -56
l-71 -43 0 -382 0 -382 43 -24 c23 -13 173 -97 334 -187 l291 -164 119 67
c227 129 253 145 253 154 0 5 -34 30 -76 54 l-77 45 -71 -40 c-39 -22 -90 -50
-113 -61 l-41 -21 -209 118 c-114 65 -229 130 -255 144 -37 20 -45 28 -35 37
6 6 71 42 142 79 l130 68 200 -118 c110 -65 212 -125 227 -132 25 -13 33 -10
130 43 57 32 106 62 110 67 10 17 9 195 -2 202 -5 3 -59 -20 -119 -51 l-109
-57 -209 127 c-115 69 -214 126 -221 126 -7 0 -66 -29 -131 -65 -65 -36 -124
-65 -130 -65 -8 0 -11 46 -9 167 l3 167 50 29 c28 16 72 41 98 54 26 14 46 30
44 36 -2 6 -44 35 -93 64 -49 28 -90 56 -91 60 -3 8 463 270 482 272 6 0 170
-91 365 -202z"/>
<path d="M798 1325 c-43 -25 -78 -49 -78 -53 0 -5 342 -214 392 -239 8 -4 178
96 178 105 0 8 -374 223 -398 228 -10 2 -52 -16 -94 -41z"/>
<path d="M568 637 c-43 -23 -77 -46 -75 -51 4 -11 377 -225 394 -226 7 0 36
14 65 31 29 17 64 35 77 41 21 7 22 11 10 22 -16 16 -378 226 -388 226 -3 0
-41 -19 -83 -43z"/>
</g>
</svg>
